<svg width="16" height="17" viewBox="0 0 16 17" fill="none" xmlns="http://www.w3.org/2000/svg">
<g clip-path="url(#clip0_98_1187)">
<path d="M6.62528 10.8333C6.56576 10.6026 6.4455 10.392 6.27702 10.2235C6.10854 10.0551 5.89799 9.93481 5.66728 9.87529L1.57728 8.82063C1.5075 8.80082 1.44608 8.7588 1.40235 8.70093C1.35862 8.64305 1.33496 8.5725 1.33496 8.49996C1.33496 8.42743 1.35862 8.35687 1.40235 8.299C1.44608 8.24113 1.5075 8.1991 1.57728 8.1793L5.66728 7.12396C5.89791 7.0645 6.10841 6.94434 6.27688 6.77599C6.44535 6.60763 6.56565 6.39722 6.62528 6.16663L7.67994 2.07663C7.69955 2.00657 7.74153 1.94486 7.79949 1.90089C7.85745 1.85693 7.9282 1.83313 8.00094 1.83313C8.07369 1.83313 8.14444 1.85693 8.2024 1.90089C8.26035 1.94486 8.30234 2.00657 8.32194 2.07663L9.37594 6.16663C9.43546 6.39734 9.55572 6.60789 9.7242 6.77637C9.89268 6.94485 10.1032 7.06511 10.3339 7.12463L14.4239 8.17863C14.4943 8.19803 14.5563 8.23997 14.6005 8.29801C14.6447 8.35606 14.6686 8.427 14.6686 8.49996C14.6686 8.57292 14.6447 8.64387 14.6005 8.70191C14.5563 8.75996 14.4943 8.8019 14.4239 8.8213L10.3339 9.87529C10.1032 9.93481 9.89268 10.0551 9.7242 10.2235C9.55572 10.392 9.43546 10.6026 9.37594 10.8333L8.32128 14.9233C8.30167 14.9934 8.25969 15.0551 8.20173 15.099C8.14377 15.143 8.07302 15.1668 8.00028 15.1668C7.92753 15.1668 7.85678 15.143 7.79882 15.099C7.74087 15.0551 7.69888 14.9934 7.67928 14.9233L6.62528 10.8333Z" fill="#08605F" stroke="#08605F" stroke-width="1.88235" stroke-linecap="round" stroke-linejoin="round"/>
<path d="M13.3335 2.5V5.16667" stroke="#08605F" stroke-width="1.88235" stroke-linecap="round" stroke-linejoin="round"/>
<path d="M14.6667 3.83325H12" stroke="#08605F" stroke-width="1.88235" stroke-linecap="round" stroke-linejoin="round"/>
<path d="M2.6665 11.8333V13.1666" stroke="#08605F" stroke-width="1.88235" stroke-linecap="round" stroke-linejoin="round"/>
<path d="M3.33333 12.5H2" stroke="#08605F" stroke-width="1.88235" stroke-linecap="round" stroke-linejoin="round"/>
</g>
<defs>
<clipPath id="clip0_98_1187">
<rect width="16" height="16" fill="white" transform="translate(0 0.5)"/>
</clipPath>
</defs>
</svg>
